<svg width="1440" height="900" viewBox="0 0 1440 900" fill="none" xmlns="http://www.w3.org/2000/svg">
<circle cx="1018" cy="159" r="245" fill="url(#paint0_radial_16_169)" fill-opacity="0.16"/>
<circle cx="1247" cy="681" r="80.5" stroke="#20B486" stroke-opacity="0.25"/>
<circle cx="1247.5" cy="681.5" r="132" stroke="#20B486" stroke-opacity="0.25"/>
<circle cx="1247" cy="681" r="171.5" stroke="#20B486" stroke-opacity="0.25"/>
<circle cx="1247" cy="681" r="206.5" stroke="#20B486" stroke-opacity="0.25"/>
<circle cx="200" cy="390" r="80.5" stroke="#20B486" stroke-opacity="0.25"/>
<circle cx="200.5" cy="390.5" r="132" stroke="#20B486" stroke-opacity="0.25"/>
<circle cx="200" cy="390" r="171.5" stroke="#20B486" stroke-opacity="0.25"/>
<circle cx="200" cy="390" r="206.5" stroke="#20B486" stroke-opacity="0.25"/>
<path d="M1057.78 262.261C1051.33 271.853 1046 282.044 1040 291.889" stroke="#FBCF9A" stroke-width="5.91667" stroke-miterlimit="1.5" stroke-linecap="round" stroke-linejoin="round"/>
<path d="M1090.07 261.438C1075 272.828 1060.95 286.037 1047.8 299.546" stroke="#FBCF9A" stroke-width="5.91667" stroke-miterlimit="1.5" stroke-linecap="round" stroke-linejoin="round"/>
<path d="M1094.84 294C1082.04 296.018 1065.03 304.399 1052.66 309.591" stroke="#FBCF9A" stroke-width="5.91667" stroke-miterlimit="1.5" stroke-linecap="round" stroke-linejoin="round"/>
<circle cx="1264" cy="313" r="11" fill="url(#paint1_linear_16_169)"/>
<circle cx="370" cy="750" r="11" fill="#20B486" fill-opacity="0.6"/>
<circle cx="5" cy="5" r="5" transform="matrix(-1 0 0 1 73 226)" fill="#20B486"/>
<circle cx="1060" cy="769" r="7" fill="#20B486"/>
<defs>
<radialGradient id="paint0_radial_16_169" cx="0" cy="0" r="1" gradientUnits="userSpaceOnUse" gradientTransform="translate(1018 159) rotate(90) scale(245)">
<stop stop-color="#FBCE9A"/>
<stop offset="1" stop-color="#FBCE9A" stop-opacity="0"/>
</radialGradient>
<linearGradient id="paint1_linear_16_169" x1="1264" y1="302" x2="1269.5" y2="339" gradientUnits="userSpaceOnUse">
<stop stop-color="#FED19C"/>
<stop offset="1" stop-color="#DEB483"/>
</linearGradient>
</defs>
</svg>
